<svg width="177" height="43" viewBox="0 0 177 43" fill="none" xmlns="http://www.w3.org/2000/svg">
<path d="M28.9316 39H24.1221V23.375H8.47266V39H3.66309V4.47852H8.47266V19.0293H24.1221V4.47852H28.9316V39ZM64.5273 4.52734V26.207C64.5273 28.2253 64.2018 30.0645 63.5508 31.7246C62.916 33.3685 62.0127 34.7764 60.8408 35.9482C59.6689 37.1201 58.2611 38.0316 56.6172 38.6826C54.9896 39.3174 53.1911 39.6348 51.2217 39.6348C49.2523 39.6348 47.4456 39.3499 45.8018 38.7803C44.1742 38.1943 42.7663 37.3398 41.5781 36.2168C40.4062 35.0775 39.4948 33.6615 38.8438 31.9688C38.1927 30.2598 37.8672 28.2822 37.8672 26.0361V4.52734H42.6523V26.3291C42.6523 28.1357 42.9046 29.625 43.4092 30.7969C43.93 31.9688 44.5973 32.8883 45.4111 33.5557C46.2412 34.223 47.1689 34.6868 48.1943 34.9473C49.236 35.2077 50.2777 35.3379 51.3193 35.3379C52.5563 35.3379 53.6224 35.1995 54.5176 34.9229C55.4128 34.6299 56.1777 34.2474 56.8125 33.7754C57.4473 33.3034 57.96 32.7581 58.3506 32.1396C58.7412 31.5049 59.0423 30.8538 59.2539 30.1865C59.4818 29.5029 59.6283 28.8193 59.6934 28.1357C59.7747 27.4521 59.8154 26.8092 59.8154 26.207V4.52734H64.5273ZM83.3262 21.3486L92.335 4.52734H97.7061L85.5967 25.6455V39H80.7139V25.6455L68.6045 4.52734H74.2686L83.3262 21.3486ZM134.742 4.52734H139.747L127.564 39H122.535L110.694 4.52734H115.919L121.729 22.4473C121.778 22.6263 121.868 22.9274 121.998 23.3506C122.128 23.7738 122.275 24.2702 122.438 24.8398C122.6 25.4095 122.771 26.028 122.95 26.6953C123.146 27.3626 123.333 28.0218 123.512 28.6729C123.935 30.2354 124.407 31.9362 124.928 33.7754H125.196C125.799 31.8711 126.352 30.1296 126.856 28.5508C127.068 27.8835 127.28 27.2161 127.491 26.5488C127.703 25.8815 127.898 25.263 128.077 24.6934C128.256 24.1237 128.411 23.6354 128.541 23.2285C128.671 22.8216 128.761 22.5368 128.81 22.374L134.742 4.52734ZM158.033 39.6348C156.145 39.6348 154.452 39.415 152.955 38.9756C151.474 38.5199 150.164 37.8932 149.024 37.0957C147.885 36.2982 146.909 35.346 146.095 34.2393C145.297 33.1325 144.638 31.9199 144.117 30.6016C143.613 29.2832 143.238 27.8835 142.994 26.4023C142.766 24.9212 142.652 23.3994 142.652 21.8369C142.652 20.2419 142.774 18.6875 143.019 17.1738C143.279 15.6602 143.67 14.236 144.19 12.9014C144.728 11.5667 145.403 10.346 146.217 9.23926C147.047 8.11621 148.032 7.15592 149.171 6.3584C150.31 5.5446 151.612 4.91797 153.077 4.47852C154.558 4.02279 156.21 3.79492 158.033 3.79492C159.856 3.79492 161.5 4.02279 162.965 4.47852C164.446 4.91797 165.756 5.5446 166.896 6.3584C168.035 7.15592 169.011 8.11621 169.825 9.23926C170.655 10.346 171.331 11.5667 171.852 12.9014C172.372 14.236 172.755 15.6602 172.999 17.1738C173.259 18.6875 173.39 20.2419 173.39 21.8369C173.39 23.3994 173.268 24.9212 173.023 26.4023C172.796 27.8835 172.429 29.2832 171.925 30.6016C171.42 31.9199 170.761 33.1325 169.947 34.2393C169.15 35.346 168.181 36.2982 167.042 37.0957C165.903 37.8932 164.584 38.5199 163.087 38.9756C161.606 39.415 159.921 39.6348 158.033 39.6348ZM158.033 35.3623C160.051 35.3623 161.72 34.9961 163.038 34.2637C164.373 33.5312 165.431 32.5384 166.212 31.2852C166.993 30.0319 167.538 28.5833 167.848 26.9395C168.173 25.2956 168.336 23.554 168.336 21.7148C168.336 19.8105 168.165 18.0283 167.823 16.3682C167.498 14.708 166.936 13.2594 166.139 12.0225C165.341 10.7855 164.283 9.81706 162.965 9.11719C161.646 8.40104 160.003 8.04297 158.033 8.04297C156.064 8.04297 154.42 8.40104 153.102 9.11719C151.783 9.81706 150.725 10.7855 149.928 12.0225C149.13 13.2594 148.561 14.708 148.219 16.3682C147.877 18.0283 147.706 19.8105 147.706 21.7148C147.706 23.554 147.861 25.2956 148.17 26.9395C148.495 28.5833 149.049 30.0319 149.83 31.2852C150.611 32.5384 151.661 33.5312 152.979 34.2637C154.314 34.9961 155.999 35.3623 158.033 35.3623Z" fill="white"/>
<path d="M28.9316 39V42H31.9316V39H28.9316ZM24.1221 39H21.1221V42H24.1221V39ZM24.1221 23.375H27.1221V20.375H24.1221V23.375ZM8.47266 23.375V20.375H5.47266V23.375H8.47266ZM8.47266 39V42H11.4727V39H8.47266ZM3.66309 39H0.663086V42H3.66309V39ZM3.66309 4.47852V1.47852H0.663086V4.47852H3.66309ZM8.47266 4.47852H11.4727V1.47852H8.47266V4.47852ZM8.47266 19.0293H5.47266V22.0293H8.47266V19.0293ZM24.1221 19.0293V22.0293H27.1221V19.0293H24.1221ZM24.1221 4.47852V1.47852H21.1221V4.47852H24.1221ZM28.9316 4.47852H31.9316V1.47852H28.9316V4.47852ZM28.9316 36H24.1221V42H28.9316V36ZM27.1221 39V23.375H21.1221V39H27.1221ZM24.1221 20.375H8.47266V26.375H24.1221V20.375ZM5.47266 23.375V39H11.4727V23.375H5.47266ZM8.47266 36H3.66309V42H8.47266V36ZM6.66309 39V4.47852H0.663086V39H6.66309ZM3.66309 7.47852H8.47266V1.47852H3.66309V7.47852ZM5.47266 4.47852V19.0293H11.4727V4.47852H5.47266ZM8.47266 22.0293H24.1221V16.0293H8.47266V22.0293ZM27.1221 19.0293V4.47852H21.1221V19.0293H27.1221ZM24.1221 7.47852H28.9316V1.47852H24.1221V7.47852ZM25.9316 4.47852V39H31.9316V4.47852H25.9316ZM64.5273 4.52734H67.5273V1.52734H64.5273V4.52734ZM63.5508 31.7246L60.7579 30.6293L60.755 30.6366L60.7522 30.644L63.5508 31.7246ZM56.6172 38.6826L57.7072 41.4776L57.7145 41.4747L57.7218 41.4718L56.6172 38.6826ZM45.8018 38.7803L44.7856 41.6029L44.8025 41.609L44.8195 41.6149L45.8018 38.7803ZM41.5781 36.2168L39.4869 38.3678L39.502 38.3825L39.5174 38.397L41.5781 36.2168ZM38.8438 31.9688L36.0403 33.0367L36.0437 33.0457L38.8438 31.9688ZM37.8672 4.52734V1.52734H34.8672V4.52734H37.8672ZM42.6523 4.52734H45.6523V1.52734H42.6523V4.52734ZM43.4092 30.7969L40.6537 31.9833L40.6606 31.9993L40.6677 32.0153L43.4092 30.7969ZM45.4111 33.5557L43.5089 35.8755L43.5201 35.8847L43.5315 35.8938L45.4111 33.5557ZM48.1943 34.9473L47.4559 37.855L47.4667 37.8577L48.1943 34.9473ZM54.5176 34.9229L55.4035 37.7891L55.4272 37.7817L55.4507 37.774L54.5176 34.9229ZM58.3506 32.1396L60.8871 33.7416L60.8964 33.7268L60.9056 33.7119L58.3506 32.1396ZM59.2539 30.1865L56.4079 29.2378L56.4009 29.2588L56.3942 29.2798L59.2539 30.1865ZM59.6934 28.1357L56.7144 27.7811L56.7102 27.8162L56.7069 27.8513L59.6934 28.1357ZM59.8154 4.52734V1.52734H56.8154V4.52734H59.8154ZM61.5273 4.52734V26.207H67.5273V4.52734H61.5273ZM61.5273 26.207C61.5273 27.8995 61.2552 29.3611 60.7579 30.6293L66.3437 32.8199C67.1484 30.7678 67.5273 28.551 67.5273 26.207H61.5273ZM60.7522 30.644C60.2584 31.9226 59.577 32.9694 58.7195 33.8269L62.9621 38.0696C64.4483 36.5834 65.5736 34.8143 66.3494 32.8053L60.7522 30.644ZM58.7195 33.8269C57.8564 34.69 56.8013 35.383 55.5125 35.8934L57.7218 41.4718C59.7208 40.6802 61.4815 39.5502 62.9621 38.0696L58.7195 33.8269ZM55.5272 35.8877C54.2884 36.3708 52.8653 36.6348 51.2217 36.6348V42.6348C53.5168 42.6348 55.6908 42.264 57.7072 41.4776L55.5272 35.8877ZM51.2217 36.6348C49.5431 36.6348 48.0733 36.3924 46.7841 35.9456L44.8195 41.6149C46.818 42.3075 48.9615 42.6348 51.2217 42.6348V36.6348ZM46.8179 35.9576C45.5561 35.5033 44.5095 34.8595 43.6389 34.0366L39.5174 38.397C41.023 39.8202 42.7922 40.8853 44.7856 41.6029L46.8179 35.9576ZM43.6694 34.0658C42.8413 33.2607 42.1562 32.2242 41.6438 30.8918L36.0437 33.0457C36.8333 35.0987 37.9712 36.8942 39.4869 38.3678L43.6694 34.0658ZM41.6472 30.9008C41.152 29.6008 40.8672 27.9978 40.8672 26.0361H34.8672C34.8672 28.5667 35.2334 30.9187 36.0403 33.0367L41.6472 30.9008ZM40.8672 26.0361V4.52734H34.8672V26.0361H40.8672ZM37.8672 7.52734H42.6523V1.52734H37.8672V7.52734ZM39.6523 4.52734V26.3291H45.6523V4.52734H39.6523ZM39.6523 26.3291C39.6523 28.3864 39.9355 30.3151 40.6537 31.9833L46.1646 29.6105C45.8738 28.9349 45.6523 27.8851 45.6523 26.3291H39.6523ZM40.6677 32.0153C41.3377 33.5226 42.2627 34.8536 43.5089 35.8755L47.3134 31.2359C46.9319 30.9231 46.5223 30.4149 46.1506 29.5785L40.6677 32.0153ZM43.5315 35.8938C44.6944 36.8287 46.0108 37.4879 47.4559 37.855L48.9328 32.0396C48.3271 31.8858 47.788 31.6173 47.2908 31.2175L43.5315 35.8938ZM47.4667 37.8577C48.739 38.1758 50.0249 38.3379 51.3193 38.3379V32.3379C50.5304 32.3379 49.733 32.2396 48.9219 32.0368L47.4667 37.8577ZM51.3193 38.3379C52.7665 38.3379 54.1464 38.1776 55.4035 37.7891L53.6317 32.0566C53.0984 32.2215 52.3461 32.3379 51.3193 32.3379V38.3379ZM55.4507 37.774C56.5966 37.399 57.6639 36.8808 58.6026 36.1828L55.0224 31.368C54.6916 31.614 54.2289 31.8607 53.5845 32.0717L55.4507 37.774ZM58.6026 36.1828C59.5094 35.5085 60.2838 34.6968 60.8871 33.7416L55.8141 30.5377C55.6361 30.8195 55.3852 31.0983 55.0224 31.368L58.6026 36.1828ZM60.9056 33.7119C61.4163 32.882 61.8234 32.0086 62.1136 31.0933L56.3942 29.2798C56.2613 29.6991 56.0661 30.1278 55.7956 30.5674L60.9056 33.7119ZM62.1 31.1352C62.3961 30.2468 62.5922 29.3406 62.6798 28.4202L56.7069 27.8513C56.6643 28.298 56.5675 28.759 56.4079 29.2378L62.1 31.1352ZM62.6723 28.4904C62.7658 27.7054 62.8154 26.9431 62.8154 26.207H56.8154C56.8154 26.6754 56.7837 27.1989 56.7144 27.7811L62.6723 28.4904ZM62.8154 26.207V4.52734H56.8154V26.207H62.8154ZM59.8154 7.52734H64.5273V1.52734H59.8154V7.52734ZM83.3262 21.3486L80.6848 22.7709L83.3333 27.6897L85.9708 22.765L83.3262 21.3486ZM92.335 4.52734V1.52734H90.5385L89.6903 3.111L92.335 4.52734ZM97.7061 4.52734L100.309 6.01965L102.884 1.52734H97.7061V4.52734ZM85.5967 25.6455L82.9942 24.1532L82.5967 24.8464V25.6455H85.5967ZM85.5967 39V42H88.5967V39H85.5967ZM80.7139 39H77.7139V42H80.7139V39ZM80.7139 25.6455H83.7139V24.8464L83.3164 24.1532L80.7139 25.6455ZM68.6045 4.52734V1.52734H63.4261L66.002 6.01965L68.6045 4.52734ZM74.2686 4.52734L76.91 3.10504L76.0604 1.52734H74.2686V4.52734ZM85.9708 22.765L94.9796 5.94369L89.6903 3.111L80.6816 19.9323L85.9708 22.765ZM92.335 7.52734H97.7061V1.52734H92.335V7.52734ZM95.1035 3.03504L82.9942 24.1532L88.1992 27.1378L100.309 6.01965L95.1035 3.03504ZM82.5967 25.6455V39H88.5967V25.6455H82.5967ZM85.5967 36H80.7139V42H85.5967V36ZM83.7139 39V25.6455H77.7139V39H83.7139ZM83.3164 24.1532L71.207 3.03504L66.002 6.01965L78.1114 27.1378L83.3164 24.1532ZM68.6045 7.52734H74.2686V1.52734H68.6045V7.52734ZM71.6271 5.94964L80.6848 22.7709L85.9676 19.9263L76.91 3.10504L71.6271 5.94964ZM134.742 4.52734V1.52734H132.578L131.895 3.581L134.742 4.52734ZM139.747 4.52734L142.576 5.52696L143.989 1.52734H139.747V4.52734ZM127.564 39V42H129.686L130.393 39.9996L127.564 39ZM122.535 39L119.698 39.9746L120.394 42H122.535V39ZM110.694 4.52734V1.52734H106.492L107.857 5.50191L110.694 4.52734ZM115.919 4.52734L118.773 3.60202L118.1 1.52734H115.919V4.52734ZM121.729 22.4473L124.624 21.6579L124.605 21.5894L124.583 21.5219L121.729 22.4473ZM121.998 23.3506L119.131 24.2328L121.998 23.3506ZM122.95 26.6953L120.053 27.4727L120.061 27.5055L120.071 27.538L122.95 26.6953ZM123.512 28.6729L126.407 27.8886L126.404 27.8774L123.512 28.6729ZM124.928 33.7754L122.041 34.5928L122.659 36.7754H124.928V33.7754ZM125.196 33.7754V36.7754H127.394L128.057 34.68L125.196 33.7754ZM126.856 28.5508L129.714 29.464L129.716 29.4575L126.856 28.5508ZM128.541 23.2285L125.684 22.3142L128.541 23.2285ZM128.81 22.374L125.963 21.4277L125.949 21.4696L125.936 21.512L128.81 22.374ZM134.742 7.52734H139.747V1.52734H134.742V7.52734ZM136.919 3.52773L124.736 38.0004L130.393 39.9996L142.576 5.52696L136.919 3.52773ZM127.564 36H122.535V42H127.564V36ZM125.372 38.0254L113.532 3.55278L107.857 5.50191L119.698 39.9746L125.372 38.0254ZM110.694 7.52734H115.919V1.52734H110.694V7.52734ZM113.065 5.45267L118.876 23.3726L124.583 21.5219L118.773 3.60202L113.065 5.45267ZM118.835 23.2366C118.898 23.467 119 23.8092 119.131 24.2328L124.865 22.4683C124.735 22.0456 124.659 21.7856 124.624 21.6579L118.835 23.2366ZM119.131 24.2328C119.253 24.6315 119.394 25.1077 119.553 25.664L125.322 24.0157C125.155 23.4326 125.003 22.916 124.865 22.4683L119.131 24.2328ZM119.553 25.664C119.711 26.2158 119.877 26.8185 120.053 27.4727L125.848 25.9179C125.665 25.2375 125.49 24.6032 125.322 24.0157L119.553 25.664ZM120.071 27.538C120.262 28.1901 120.445 28.8335 120.619 29.4683L126.404 27.8774C126.221 27.2101 126.029 26.5352 125.829 25.8526L120.071 27.538ZM120.616 29.4571C121.043 31.0324 121.518 32.7445 122.041 34.5928L127.814 32.958C127.296 31.1279 126.827 29.4383 126.407 27.8886L120.616 29.4571ZM124.928 36.7754H125.196V30.7754H124.928V36.7754ZM128.057 34.68C128.658 32.778 129.211 31.0394 129.714 29.464L123.999 27.6375C123.493 29.2197 122.939 30.9642 122.336 32.8708L128.057 34.68ZM129.716 29.4575C129.721 29.4432 129.722 29.4405 129.726 29.4262C129.731 29.4119 129.731 29.4093 129.736 29.395C129.741 29.3806 129.741 29.378 129.746 29.3637C129.75 29.3494 129.751 29.3467 129.756 29.3324C129.76 29.3181 129.761 29.3154 129.766 29.3011C129.77 29.2868 129.771 29.2841 129.776 29.2698C129.78 29.2555 129.781 29.2529 129.786 29.2385C129.79 29.2242 129.791 29.2216 129.795 29.2073C129.8 29.193 129.801 29.1903 129.805 29.176C129.81 29.1617 129.811 29.159 129.815 29.1447C129.82 29.1304 129.821 29.1277 129.825 29.1134C129.83 29.0991 129.831 29.0965 129.835 29.0821C129.84 29.0678 129.841 29.0652 129.845 29.0509C129.85 29.0366 129.85 29.0339 129.855 29.0196C129.86 29.0053 129.86 29.0026 129.865 28.9883C129.869 28.974 129.87 28.9713 129.875 28.957C129.879 28.9427 129.88 28.94 129.885 28.9257C129.889 28.9114 129.89 28.9088 129.895 28.8945C129.899 28.8802 129.9 28.8775 129.905 28.8632C129.909 28.8489 129.91 28.8462 129.915 28.8319C129.919 28.8176 129.92 28.8149 129.924 28.8006C129.929 28.7863 129.93 28.7836 129.934 28.7693C129.939 28.755 129.94 28.7524 129.944 28.7381C129.949 28.7238 129.95 28.7211 129.954 28.7068C129.959 28.6925 129.96 28.6898 129.964 28.6755C129.969 28.6612 129.969 28.6585 129.974 28.6442C129.979 28.6299 129.979 28.6272 129.984 28.6129C129.988 28.5986 129.989 28.596 129.994 28.5817C129.998 28.5674 129.999 28.5647 130.004 28.5504C130.008 28.5361 130.009 28.5334 130.014 28.5191C130.018 28.5048 130.019 28.5021 130.024 28.4878C130.028 28.4735 130.029 28.4708 130.034 28.4565C130.052 28.3984 130.174 28.0142 130.192 27.956C130.211 27.8979 130.332 27.5137 130.351 27.4556L124.632 25.6421C124.529 25.9639 124.416 26.3213 124.314 26.6431C124.254 26.8335 124.216 26.9531 124.155 27.1436C124.095 27.334 124.057 27.4536 123.997 27.644L129.716 29.4575ZM130.351 27.4556C130.563 26.7862 130.759 26.1653 130.939 25.5928L125.215 23.7939C125.037 24.3608 124.842 24.9768 124.632 25.6421L130.351 27.4556ZM130.939 25.5928C131.117 25.0264 131.27 24.5433 131.398 24.1428L125.684 22.3142C125.551 22.7275 125.395 23.221 125.215 23.7939L130.939 25.5928ZM131.398 24.1428C131.528 23.7368 131.625 23.4281 131.683 23.2361L125.936 21.512C125.896 21.6454 125.814 21.9065 125.684 22.3142L131.398 24.1428ZM131.656 23.3204L137.589 5.47369L131.895 3.581L125.963 21.4277L131.656 23.3204ZM152.955 38.9756L152.073 41.8429L152.092 41.8487L152.11 41.8542L152.955 38.9756ZM149.024 37.0957L147.304 39.5534L149.024 37.0957ZM146.095 34.2393L143.661 35.9931L143.669 36.0048L143.678 36.0164L146.095 34.2393ZM144.117 30.6016L141.315 31.6739L141.321 31.6889L141.327 31.7038L144.117 30.6016ZM142.994 26.4023L140.029 26.8585L140.031 26.8744L140.034 26.8903L142.994 26.4023ZM143.019 17.1738L140.062 16.6652L140.059 16.6806L140.057 16.6961L143.019 17.1738ZM144.19 12.9014L141.407 11.7813L141.401 11.796L141.396 11.8107L144.19 12.9014ZM146.217 9.23926L143.804 7.45608L143.8 7.46209L146.217 9.23926ZM149.171 6.3584L150.891 8.81609L150.903 8.8079L150.915 8.7996L149.171 6.3584ZM153.077 4.47852L153.939 7.35199L153.949 7.34896L153.959 7.34585L153.077 4.47852ZM162.965 4.47852L162.074 7.34309L162.093 7.34896L162.112 7.35459L162.965 4.47852ZM166.896 6.3584L165.152 8.7996L165.163 8.8079L165.175 8.81609L166.896 6.3584ZM169.825 9.23926L167.396 10.9996L167.41 11.0195L167.425 11.0393L169.825 9.23926ZM171.852 12.9014L174.646 11.8107L171.852 12.9014ZM172.999 17.1738L170.037 17.6515L170.04 17.667L170.042 17.6825L172.999 17.1738ZM173.023 26.4023L170.063 25.9144L170.061 25.9303L170.058 25.9462L173.023 26.4023ZM171.925 30.6016L169.123 29.5293L171.925 30.6016ZM169.947 34.2393L167.53 32.4621L167.522 32.4737L167.513 32.4854L169.947 34.2393ZM163.087 38.9756L163.94 41.8517L163.95 41.8487L163.96 41.8456L163.087 38.9756ZM163.038 34.2637L161.595 31.6337L161.588 31.6374L161.581 31.6412L163.038 34.2637ZM167.848 26.9395L164.905 26.3567L164.902 26.3708L164.899 26.3848L167.848 26.9395ZM167.823 16.3682L164.879 16.9454L164.882 16.9593L164.885 16.9731L167.823 16.3682ZM162.965 9.11719L161.533 11.7534L161.545 11.7602L161.558 11.767L162.965 9.11719ZM153.102 9.11719L154.508 11.767L154.521 11.7602L154.534 11.7534L153.102 9.11719ZM148.17 26.9395L145.222 27.4941L145.224 27.5082L145.227 27.5222L148.17 26.9395ZM152.979 34.2637L151.523 36.8861L151.529 36.8899L151.536 36.8937L152.979 34.2637ZM158.033 36.6348C156.373 36.6348 154.973 36.4411 153.8 36.097L152.11 41.8542C153.932 42.3889 155.917 42.6348 158.033 42.6348V36.6348ZM153.837 36.1082C152.621 35.7341 151.6 35.2369 150.745 34.638L147.304 39.5534C148.727 40.5496 150.326 41.3056 152.073 41.8429L153.837 36.1082ZM150.745 34.638C149.87 34.0255 149.129 33.3023 148.512 32.4621L143.678 36.0164C144.688 37.3897 145.9 38.5708 147.304 39.5534L150.745 34.638ZM148.529 32.4854C147.882 31.588 147.34 30.5956 146.907 29.4993L141.327 31.7038C141.936 33.2443 142.712 34.677 143.661 35.9931L148.529 32.4854ZM146.919 29.5293C146.491 28.4114 146.168 27.2085 145.954 25.9144L140.034 26.8903C140.309 28.5585 140.734 30.155 141.315 31.6739L146.919 29.5293ZM145.959 25.9462C145.756 24.6223 145.652 23.2532 145.652 21.8369H139.652C139.652 23.5457 139.777 25.2202 140.029 26.8585L145.959 25.9462ZM145.652 21.8369C145.652 20.3954 145.763 19.001 145.98 17.6515L140.057 16.6961C139.786 18.374 139.652 20.0883 139.652 21.8369H145.652ZM145.975 17.6825C146.204 16.3536 146.543 15.1256 146.985 13.992L141.396 11.8107C140.796 13.3464 140.354 14.9667 140.062 16.6652L145.975 17.6825ZM146.974 14.0214C147.421 12.9093 147.976 11.911 148.634 11.0164L143.8 7.46209C142.83 8.78104 142.034 10.2242 141.407 11.7813L146.974 14.0214ZM148.629 11.0224C149.267 10.159 150.019 9.42688 150.891 8.81609L147.451 3.9007C146.044 4.88497 144.826 6.07338 143.804 7.45608L148.629 11.0224ZM150.915 8.7996C151.762 8.1942 152.761 7.70547 153.939 7.35199L152.215 1.60504C150.464 2.13047 148.858 2.89499 147.427 3.9172L150.915 8.7996ZM153.959 7.34585C155.11 6.99198 156.458 6.79492 158.033 6.79492V0.794922C155.963 0.794922 154.007 1.0536 152.195 1.61118L153.959 7.34585ZM158.033 6.79492C159.609 6.79492 160.946 6.99216 162.074 7.34309L163.856 1.61395C162.054 1.05341 160.103 0.794922 158.033 0.794922V6.79492ZM162.112 7.35459C163.307 7.70917 164.31 8.19804 165.152 8.7996L168.639 3.9172C167.203 2.89115 165.585 2.12676 163.818 1.60244L162.112 7.35459ZM165.175 8.81609C166.042 9.42275 166.779 10.1476 167.396 10.9996L172.254 7.47893C171.244 6.08486 170.028 4.8891 168.616 3.9007L165.175 8.81609ZM167.425 11.0393C168.086 11.9209 168.631 12.9016 169.057 13.992L174.646 11.8107C174.03 10.2319 173.224 8.77115 172.225 7.43926L167.425 11.0393ZM169.057 13.992C169.495 15.1155 169.825 16.3329 170.037 17.6515L175.961 16.6961C175.685 14.9874 175.25 13.3565 174.646 11.8107L169.057 13.992ZM170.042 17.6825C170.273 19.0218 170.39 20.4058 170.39 21.8369H176.39C176.39 20.0779 176.246 18.3532 175.956 16.6652L170.042 17.6825ZM170.39 21.8369C170.39 23.2426 170.28 24.601 170.063 25.9144L175.983 26.8903C176.255 25.2414 176.39 23.5562 176.39 21.8369H170.39ZM170.058 25.9462C169.861 27.2296 169.547 28.4217 169.123 29.5293L174.727 31.6739C175.312 30.1447 175.73 28.5373 175.989 26.8585L170.058 25.9462ZM169.123 29.5293C168.712 30.6034 168.18 31.5779 167.53 32.4621L172.364 36.0164C173.342 34.6871 174.129 33.2364 174.727 31.6739L169.123 29.5293ZM167.513 32.4854C166.916 33.3139 166.191 34.0296 165.322 34.638L168.762 39.5534C170.172 38.5667 171.383 37.3782 172.381 35.9931L167.513 32.4854ZM165.322 34.638C164.471 35.2332 163.446 35.7304 162.213 36.1056L163.96 41.8456C165.723 41.3093 167.334 40.5533 168.762 39.5534L165.322 34.638ZM162.234 36.0995C161.083 36.4409 159.694 36.6348 158.033 36.6348V42.6348C160.149 42.6348 162.129 42.3892 163.94 41.8517L162.234 36.0995ZM158.033 38.3623C160.395 38.3623 162.605 37.9359 164.495 36.8861L161.581 31.6412C160.834 32.0563 159.708 32.3623 158.033 32.3623V38.3623ZM164.481 36.8937C166.252 35.9218 167.696 34.5757 168.758 32.8722L163.666 29.6981C163.165 30.5011 162.493 31.1407 161.595 31.6337L164.481 36.8937ZM168.758 32.8722C169.76 31.2637 170.427 29.4559 170.796 27.4941L164.899 26.3848C164.65 27.7108 164.226 28.8001 163.666 29.6981L168.758 32.8722ZM170.791 27.5222C171.158 25.6688 171.336 23.7309 171.336 21.7148H165.336C165.336 23.3771 165.189 24.9223 164.905 26.3567L170.791 27.5222ZM171.336 21.7148C171.336 19.6318 171.149 17.6451 170.762 15.7632L164.885 16.9731C165.181 18.4116 165.336 19.9893 165.336 21.7148H171.336ZM170.767 15.7909C170.379 13.8128 169.692 11.9974 168.66 10.3968L163.617 13.6481C164.18 14.5215 164.616 15.6032 164.879 16.9454L170.767 15.7909ZM168.66 10.3968C167.581 8.72246 166.136 7.40421 164.372 6.46742L161.558 11.767C162.43 12.2299 163.102 12.8485 163.617 13.6481L168.66 10.3968ZM164.397 6.48102C162.523 5.46305 160.352 5.04297 158.033 5.04297V11.043C159.654 11.043 160.77 11.339 161.533 11.7534L164.397 6.48102ZM158.033 5.04297C155.715 5.04297 153.544 5.46305 151.67 6.48102L154.534 11.7534C155.296 11.339 156.413 11.043 158.033 11.043V5.04297ZM151.695 6.46742C149.93 7.40421 148.486 8.72246 147.406 10.3968L152.449 13.6481C152.965 12.8485 153.636 12.2299 154.508 11.767L151.695 6.46742ZM147.406 10.3968C146.38 11.9888 145.686 13.7943 145.28 15.7632L151.157 16.9731C151.435 15.6217 151.88 14.5301 152.449 13.6481L147.406 10.3968ZM145.28 15.7632C144.893 17.6451 144.706 19.6318 144.706 21.7148H150.706C150.706 19.9893 150.861 18.4116 151.157 16.9731L145.28 15.7632ZM144.706 21.7148C144.706 23.7219 144.875 25.6503 145.222 27.4941L151.118 26.3848C150.847 24.9409 150.706 23.3861 150.706 21.7148H144.706ZM145.227 27.5222C145.614 29.4746 146.287 31.2723 147.284 32.8722L152.376 29.6981C151.811 28.7915 151.377 27.6921 151.113 26.3567L145.227 27.5222ZM147.284 32.8722C148.341 34.5668 149.769 35.912 151.523 36.8861L154.436 31.6412C153.553 31.1505 152.882 30.51 152.376 29.6981L147.284 32.8722ZM151.536 36.8937C153.437 37.9368 155.657 38.3623 158.033 38.3623V32.3623C156.34 32.3623 155.191 32.0553 154.423 31.6337L151.536 36.8937Z" fill="black"/>
</svg>
